<svg xmlns="http://www.w3.org/2000/svg" viewBox="0 0 512 512"><path d="M448 0H64C28.704 0 0 28.704 0 64v288c0 35.296 28.704 64 64 64h104.512l75.2 90.24c3.008 3.616 7.456 5.728 12.128 5.76h.16a16.06 16.06 0 0012.096-5.504L346.528 416H448c35.296 0 64-28.704 64-64V64c0-35.296-28.704-64-64-64zm32 352c0 17.632-14.368 32-32 32H339.2a16.06 16.06 0 00-12.096 5.504l-70.88 81.792-67.936-81.536A16.014 16.014 0 00176 384H64c-17.632 0-32-14.368-32-32V64c0-17.632 14.368-32 32-32h384c17.632 0 32 14.368 32 32v288z"/><path d="M272 224H144c-8.832 0-16 7.168-16 16s7.168 16 16 16h128c8.832 0 16-7.168 16-16s-7.168-16-16-16zM368 128H144c-8.832 0-16 7.168-16 16s7.168 16 16 16h224c8.832 0 16-7.168 16-16s-7.168-16-16-16z"/></svg>
