<svg xmlns="http://www.w3.org/2000/svg" viewBox="0 0 29.643 29.643">
  <path d="M18.621 12.397l-.546-1.295s1.267-2.859 1.157-2.969l-1.678-1.639c-.117-.113-2.978 1.191-2.978 1.191l-1.32-.533s-1.169-2.898-1.327-2.898h-2.37c-.164 0-1.242 2.906-1.242 2.906l-1.319.535S4.076 6.453 3.964 6.56L2.287 8.203c-.116.115 1.219 2.916 1.219 2.916l-.544 1.295S0 13.553 0 13.709v2.322c0 .16 2.969 1.217 2.969 1.217l.545 1.291S2.246 21.4 2.357 21.51l1.679 1.641c.113.111 2.976-1.195 2.976-1.195l1.321.537s1.166 2.896 1.326 2.896h2.37c.163 0 1.244-2.906 1.244-2.906l1.32-.535s2.918 1.242 3.031 1.135l1.678-1.643c.115-.111-1.221-2.914-1.221-2.914l.546-1.295s2.963-1.143 2.963-1.299v-2.32c.001-.159-2.969-1.215-2.969-1.215zm-7.826 5.81c-1.905 0-3.459-1.52-3.459-3.387 0-1.865 1.554-3.385 3.459-3.385 1.908 0 3.459 1.52 3.459 3.385 0 1.868-1.551 3.387-3.459 3.387z"/>
  <path d="M28.538 9.693l.014-.676s1.118-1.006 1.091-1.076l-.414-1.048c-.031-.072-1.544-.062-1.544-.062l-.474-.492s.058-1.502-.013-1.533l-1.041-.467c-.074-.033-1.117 1.035-1.117 1.035l-.684-.027s-1.039-1.119-1.109-1.092l-1.061.393c-.071.025-.036 1.518-.036 1.518l-.495.463s-1.523-.082-1.554-.014l-.457 1.02c-.032.072 1.065 1.119 1.065 1.119l-.014.672s-1.117 1.008-1.09 1.078l.415 1.049c.03.07 1.543.059 1.543.059l.473.494s-.055 1.502.016 1.533l1.041.465c.072.033 1.116-1.029 1.116-1.029l.685.023s1.037 1.119 1.109 1.094l1.058-.393c.073-.025.038-1.52.038-1.52l.494-.459s1.523.078 1.555.01l.457-1.02c.029-.07-1.067-1.117-1.067-1.117zm-2.393.207c-.367.82-1.347 1.184-2.187.809-.836-.373-1.22-1.346-.853-2.168.365-.818 1.348-1.18 2.184-.807.837.377 1.221 1.348.856 2.166z"/>
</svg>
